# Blender v2.83.0 OBJ File: 'anvil.blend'
# www.blender.org
mtllib anvil.mtl
o Plane_Plane.001
v -65.818771 -1.838982 65.818771
v 65.818771 -1.838982 65.818771
v -65.818771 -1.838982 -65.818771
v 65.818771 -1.838982 -65.818771
v -65.645798 7.706509 65.645798
v 65.645782 7.706509 65.645782
v -65.645782 7.706509 -65.645782
v 65.645798 7.706509 -65.645798
v -33.056374 97.985733 33.056374
v 33.056374 97.985733 33.056374
v -33.056374 97.985733 -33.056374
v 33.056374 97.985733 -33.056374
v -51.400845 15.229778 -51.400845
v -41.374146 22.753052 -41.374146
v -34.469257 30.276314 -34.469257
v -29.663607 37.799591 -29.663607
v -26.380116 45.322853 -26.380116
v -24.283749 52.846123 -24.283749
v -23.188774 60.369385 -23.188774
v -23.015320 67.892662 -23.015320
v -23.771317 75.415924 -23.771317
v -25.550198 82.939201 -25.550198
v -28.541513 90.462479 -28.541513
v 28.541513 90.462479 -28.541513
v 25.550198 82.939201 -25.550198
v 23.771317 75.415939 -23.771317
v 23.015320 67.892662 -23.015320
v 23.188772 60.369400 -23.188772
v 24.283752 52.846123 -24.283752
v 26.380116 45.322861 -26.380116
v 29.663610 37.799591 -29.663610
v 34.469257 30.276329 -34.469257
v 41.374146 22.753052 -41.374146
v 51.400852 15.229778 -51.400852
v 51.400845 15.229778 51.400845
v 41.374146 22.753052 41.374146
v 34.469257 30.276314 34.469257
v 29.663607 37.799591 29.663607
v 26.380116 45.322853 26.380116
v 24.283749 52.846123 24.283749
v 23.188774 60.369385 23.188774
v 23.015320 67.892662 23.015320
v 23.771317 75.415924 23.771317
v 25.550198 82.939201 25.550198
v 28.541513 90.462479 28.541513
v -28.541513 90.462479 28.541513
v -25.550198 82.939201 25.550198
v -23.782070 75.470200 23.783316
v -23.015320 67.892662 23.015320
v -23.188772 60.369400 23.188772
v -24.283752 52.846123 24.283752
v -26.380116 45.322861 26.380116
v -29.663610 37.799591 29.663610
v -34.469257 30.276329 34.469257
v -41.374146 22.753052 41.374146
v -51.400852 15.229778 51.400852
v -33.056374 158.028458 33.056374
v 33.056374 158.028458 33.056374
v -33.056374 158.028458 -33.056374
v 33.056374 158.028458 -33.056374
v -28.248299 115.482208 -77.303543
v 28.248299 115.482208 -77.303543
v -28.248299 153.220367 -77.303543
v 28.248299 153.220367 -77.303543
v 33.056374 105.692886 -50.879543
v 33.056374 158.028458 -50.879543
v -33.056374 158.028458 -50.879543
v -33.056374 105.692886 -50.879543
v -34.551918 -1.838982 -13.261668
v -65.818771 -1.838982 -47.476006
v -33.056374 108.791733 47.395950
v -33.056374 115.479599 61.735535
v -33.056374 121.138550 76.075111
v -33.056374 125.768600 90.414688
v -33.056374 129.369751 104.754272
v -33.056374 131.942001 119.093849
v -33.056374 133.485352 133.433426
v -33.056374 158.028458 133.433426
v -33.056374 158.028458 119.093849
v -33.056374 158.028458 104.754272
v -33.056374 158.028458 90.414688
v -33.056374 158.028458 76.075111
v -33.056374 158.028458 61.735535
v -33.056374 158.028458 47.395954
v 33.056374 158.028458 47.395947
v 33.056374 158.028458 61.735535
v 33.056374 158.028458 76.075111
v 33.056374 158.028458 90.414688
v 33.056374 158.028458 104.754272
v 33.056374 158.028458 119.093849
v 33.056374 158.028458 133.433426
v 33.056374 133.485352 133.433426
v 33.056374 131.942001 119.093849
v 33.056374 129.369751 104.754272
v 33.056374 125.768600 90.414688
v 33.056374 121.138550 76.075111
v 33.056374 115.479599 61.735535
v 33.056374 108.791748 47.395954
v -65.645782 7.706509 -47.411694
v -65.818771 -1.838982 47.368393
v -41.374146 22.753052 -28.323948
v -65.645790 7.706509 47.411694
v -32.500000 -1.838982 -0.000004
v -51.400852 15.229778 38.848286
v -51.400833 -1.838982 38.848293
v -34.469257 30.276321 13.079164
v -32.500000 33.359200 -0.000004
v 32.500000 33.359200 32.500000
v 32.500000 33.359207 -32.500000
v -65.818771 -1.838982 -47.440102
v -51.400845 15.229778 -38.848297
v -34.469257 30.276314 -13.079168
v -41.374146 22.753052 28.323948
v 41.374138 -1.838982 -28.323948
v 41.374146 22.753052 -28.323954
v 34.469257 30.276329 -13.079172
v 32.500000 33.359200 -0.000048
v 65.818771 -1.838982 47.440105
v 65.645782 7.706509 47.411694
v 51.400852 15.229778 -38.848305
v 65.645798 7.706509 -47.411705
v 34.469257 30.276321 13.079162
v 41.374146 22.753052 28.323942
v 32.500000 -1.838982 -0.000048
v 51.400852 -1.838982 38.848309
v 51.400845 15.229778 38.848305
v 65.818771 -1.838982 -47.475986
v 51.400864 -1.838982 -38.848312
v 34.469257 -1.838982 -13.079174
v 34.469257 -1.838982 13.079164
v 41.374146 -1.838982 28.323942
v -41.374146 -1.838982 28.323948
v -34.469254 -1.838982 13.079166
v -34.469261 -1.838982 -13.079178
v -41.374142 -1.838982 -28.323942
v -51.400841 -1.838982 -38.848293
v -32.500004 33.359200 32.500004
v -32.500000 33.359200 -32.500000
v 33.056374 110.674133 -77.303543
v -33.056374 110.674133 -77.303543
v 33.056374 158.028458 -77.303543
v -33.056374 158.028458 -77.303543
v -13.541415 120.927414 -96.000290
v 13.838827 120.927414 -96.000290
v -13.541415 147.775177 -96.000290
v 13.838827 147.775177 -96.000290
v -3.479586 139.945267 -184.938629
v 3.776999 139.945267 -184.938629
v -3.479586 147.060730 -184.938629
v 3.776999 147.060730 -184.938629
v -13.384348 147.743896 -104.347183
v -12.915535 147.652756 -114.211723
v -12.196543 147.566238 -124.787628
v -11.289493 147.671722 -135.399536
v -10.256504 147.535751 -145.506577
v -9.159700 147.468964 -154.702438
v -8.061200 147.391769 -162.715317
v -7.023127 147.250793 -169.407944
v -6.107601 147.160217 -174.777542
v -5.376741 147.106171 -178.955917
v -4.892672 147.043274 -182.209320
v -4.892672 137.887390 -182.209320
v -5.376741 136.270187 -178.955917
v -6.107601 134.890930 -174.777542
v -7.023127 133.059311 -169.407944
v -8.061200 131.291306 -162.715317
v -9.159700 129.214203 -154.702438
v -10.256504 127.130035 -145.506577
v -11.289493 125.240204 -135.399536
v -12.196543 123.355911 -124.787628
v -12.915535 122.032425 -114.211723
v -13.384348 121.081421 -104.347183
v 13.681761 147.743896 -104.347183
v 13.212948 147.652756 -114.211723
v 12.493955 147.566238 -124.787628
v 11.586905 147.671722 -135.399536
v 10.553917 147.535751 -145.506577
v 9.457113 147.468964 -154.702438
v 8.358613 147.391769 -162.715317
v 7.320539 147.342789 -169.407944
v 6.405013 147.160217 -174.777542
v 5.674153 147.106171 -178.955917
v 5.190084 147.043274 -182.209320
v 13.681761 121.081421 -104.347183
v 13.212948 122.032425 -114.211723
v 12.493955 123.355911 -124.787628
v 11.586905 125.240204 -135.399536
v 10.553917 127.130035 -145.506577
v 9.457113 129.214203 -154.702438
v 8.358613 131.291306 -162.715317
v 7.320539 133.059311 -169.407944
v 6.405013 134.890930 -174.777542
v 5.674153 136.270187 -178.955917
v 5.190084 137.887390 -182.209320
v 24.736115 116.809433 -96.000290
v 28.248299 115.482208 -94.325340
v -28.248299 115.482208 -94.325340
v -24.674143 116.805527 -96.000290
v 28.248299 153.220367 -94.325340
v 24.736115 151.893158 -96.000290
v -24.674143 151.897049 -96.000290
v -28.248299 153.220367 -94.325340
v -29.832088 137.224075 147.773010
v -33.056374 133.884155 145.488861
v 33.056374 133.884155 145.488861
v 29.832088 137.224075 147.773010
v -33.056374 158.028458 145.488815
v -29.832088 154.804169 147.773010
v 29.832088 154.804169 147.773010
v 33.056374 158.028458 145.488815
vt 1.000000 1.000000
vt 0.000000 1.000000
vt 0.000000 1.000000
vt 1.000000 1.000000
vt 1.000000 0.000000
vt 1.000000 0.143430
vt 1.000000 0.138882
vt 1.000000 0.000000
vt 0.000000 1.000000
vt 0.000000 0.856851
vt 0.000000 0.856570
vt 0.000000 0.861118
vt 0.000000 1.000000
vt 1.000000 1.000000
vt 1.000000 1.000000
vt 0.000000 0.000000
vt 0.000000 0.000000
vt 1.000000 0.000000
vt 1.000000 1.000000
vt 1.000000 0.000000
vt 0.000000 0.000000
vt 1.000000 0.000000
vt 0.000000 0.000000
vt 0.000000 0.877896
vt 0.000000 1.000000
vt 0.000000 0.842290
vt 0.000000 1.000000
vt 0.000000 0.689722
vt 0.000000 1.000000
vt 0.000000 0.500000
vt 0.000000 1.000000
vt 0.000000 1.000000
vt 0.000000 0.000000
vt 0.000000 0.000000
vt 0.000000 1.000000
vt 0.000000 0.000000
vt 0.000000 1.000000
vt 0.000000 0.000000
vt 0.000000 1.000000
vt 0.000000 0.000000
vt 0.000000 1.000000
vt 0.000000 0.000000
vt 0.000000 1.000000
vt 0.000000 0.000000
vt 0.000000 1.000000
vt 1.000000 0.122104
vt 1.000000 0.000000
vt 1.000000 0.157710
vt 1.000000 0.000000
vt 1.000000 0.310278
vt 1.000000 0.000000
vt 1.000000 0.500001
vt 1.000000 0.000000
vt 1.000000 0.000000
vt 1.000000 1.000000
vt 1.000000 1.000000
vt 1.000000 0.000000
vt 1.000000 1.000000
vt 1.000000 0.000000
vt 1.000000 1.000000
vt 1.000000 0.000000
vt 1.000000 1.000000
vt 1.000000 0.000000
vt 1.000000 1.000000
vt 1.000000 0.000000
vt 1.000000 1.000000
vt 1.000000 0.000000
vt 0.000000 0.000000
vt 0.000000 0.000000
vt 0.000000 0.000000
vt 0.000000 0.000000
vt 1.000000 1.000000
vt 1.000000 1.000000
vt 1.000000 1.000000
vt 1.000000 1.000000
vt 0.000000 0.000000
vt 0.000000 1.000000
vt 1.000000 1.000000
vt 1.000000 1.000000
vt 1.000000 1.000000
vt 1.000000 1.000000
vt 1.000000 0.000000
vt 1.000000 0.000000
vt 1.000000 0.000000
vt 1.000000 0.000000
vt 0.844912 1.000000
vt 0.155088 1.000000
vt 0.092742 1.000000
vt 0.907200 1.000000
vt 0.000000 1.000000
vt 0.000000 1.000000
vt 0.000000 1.000000
vt 0.000000 1.000000
vt 0.000000 0.000000
vt 0.000000 0.000000
vt 0.000000 0.000000
vt 0.000000 0.000000
vt 0.048769 0.000000
vt 0.951231 0.000000
vt 0.951231 0.000000
vt 0.048769 0.000000
vt 0.000000 0.000000
vt 1.000000 0.000000
vt 0.000000 0.000000
vt 1.000000 0.000000
vt 0.000000 0.000000
vt 1.000000 0.000000
vt 0.000000 0.000000
vt 1.000000 0.000000
vt 0.000000 0.000000
vt 1.000000 0.000000
vt 0.000000 0.000000
vt 1.000000 0.000000
vt 1.000000 0.000000
vt 0.000000 0.000000
vt 1.000000 0.000000
vt 0.000000 0.000000
vt 1.000000 0.000000
vt 0.000000 0.000000
vt 1.000000 0.000000
vt 0.000000 0.000000
vt 1.000000 0.000000
vt 0.000000 0.000000
vt 1.000000 0.000000
vt 0.000000 0.000000
vt 0.750000 0.680599
vt 0.750000 0.856590
vt 0.792327 0.841175
vt 0.792327 0.680599
vt 1.000000 0.689722
vt 0.846000 0.803559
vt 0.846000 0.680599
vt 0.792969 0.680599
vt 0.654000 0.680599
vt 0.654000 0.803559
vt 0.707673 0.841175
vt 0.707673 0.680599
vt 0.607446 0.680599
vt 0.607446 0.765943
vt 0.000000 0.157710
vt 0.000000 0.122105
vt 0.000000 0.138883
vt 0.000000 0.143430
vt 0.554328 0.680599
vt 0.559088 0.728326
vt 1.000000 0.842291
vt 1.000000 0.877896
vt 1.000000 0.861118
vt 0.054328 0.680599
vt 0.059089 0.728326
vt 0.107446 0.765943
vt 0.107446 0.680599
vt 1.000000 0.856571
vt 0.154001 0.803559
vt 0.154001 0.680599
vt 0.207673 0.841175
vt 0.207673 0.680599
vt 0.250000 0.680599
vt 0.250000 0.856590
vt 0.292327 0.841175
vt 0.292327 0.680599
vt 0.346000 0.803559
vt 0.346000 0.680599
vt 0.392554 0.765943
vt 0.392554 0.680599
vt 0.440912 0.728326
vt 0.445672 0.680599
vt 0.892554 0.765943
vt 0.892554 0.680599
vt 0.940912 0.728326
vt 0.945672 0.680599
vt 0.000000 0.310278
vt 0.072725 1.000000
vt 0.927275 1.000000
vt 0.927275 1.000000
vt 0.072725 1.000000
vt 0.155088 1.000000
vt 0.155088 1.000000
vt 0.155088 1.000000
vt 0.155088 1.000000
vt 0.072725 1.000000
vt 0.927275 1.000000
vt 0.844912 1.000000
vt 0.907200 1.000000
vt 0.927275 1.000000
vt 0.072725 1.000000
vt 0.155088 1.000000
vt 0.092742 1.000000
vt 0.844912 1.000000
vt 0.844912 1.000000
vt 0.844912 1.000000
vt 0.844912 1.000000
vt 0.155088 1.000000
vt 0.844912 1.000000
vt 0.155088 1.000000
vt 0.844912 1.000000
vt 0.155088 1.000000
vt 0.844912 1.000000
vt 0.155088 1.000000
vt 0.844912 1.000000
vt 0.155088 1.000000
vt 0.844912 1.000000
vt 0.155088 1.000000
vt 0.844912 1.000000
vt 0.155088 1.000000
vt 0.844912 1.000000
vt 0.155088 1.000000
vt 0.844912 1.000000
vt 0.155088 1.000000
vt 0.844912 1.000000
vt 0.155088 1.000000
vt 0.844912 1.000000
vt 0.844912 1.000000
vt 0.844912 1.000000
vt 0.844912 1.000000
vt 0.844912 1.000000
vt 0.844912 1.000000
vt 0.844912 1.000000
vt 0.844912 1.000000
vt 0.844912 1.000000
vt 0.844912 1.000000
vt 0.844912 1.000000
vt 0.155088 1.000000
vt 0.155088 1.000000
vt 0.155088 1.000000
vt 0.155088 1.000000
vt 0.155088 1.000000
vt 0.155088 1.000000
vt 0.155088 1.000000
vt 0.155088 1.000000
vt 0.155088 1.000000
vt 0.155088 1.000000
vt 0.890471 0.795114
vt 0.109528 0.795115
vt 0.814302 0.715167
vt 0.185696 0.715166
vt 0.761842 0.599360
vt 0.237522 0.600744
vt 0.746897 0.500000
vt 0.253110 0.500000
vt 0.238150 0.599358
vt 0.761854 0.400645
vt 0.238150 0.400643
vt 0.814305 0.284834
vt 0.185696 0.284834
vt 0.890471 0.204884
vt 0.109528 0.204885
vn 0.0000 -0.5146 -0.8574
vn 0.9998 0.0181 0.0000
vn -0.9998 0.0181 0.0000
vn -0.0000 0.0181 -0.9998
vn 0.0000 0.0181 0.9998
vn 1.0000 0.0000 0.0000
vn 0.0000 -0.5146 0.8574
vn 0.8574 -0.5146 0.0000
vn -0.8574 -0.5146 0.0000
vn -0.4670 0.8843 0.0000
vn -0.6002 0.7999 0.0000
vn -0.7367 0.6762 0.0000
vn -0.8427 0.5383 0.0000
vn -0.9165 0.4000 -0.0000
vn -0.9633 0.2684 -0.0000
vn -0.9896 0.1440 -0.0000
vn -0.9997 0.0230 0.0000
vn -0.9950 -0.1003 -0.0001
vn -0.9731 -0.2302 0.0000
vn -0.9292 -0.3695 0.0000
vn 0.4670 0.8843 0.0000
vn 0.6002 0.7999 0.0000
vn 0.7367 0.6762 0.0000
vn 0.8427 0.5383 0.0000
vn 0.9165 0.4000 0.0000
vn 0.9633 0.2684 0.0000
vn 0.9896 0.1440 0.0000
vn 0.9997 0.0230 -0.0000
vn 0.9950 -0.1000 0.0000
vn 0.9732 -0.2301 0.0000
vn 0.9292 -0.3695 0.0000
vn 0.0000 0.8843 0.4670
vn 0.0000 0.7999 0.6002
vn 0.0000 0.6762 0.7367
vn 0.0000 0.5383 0.8427
vn 0.0000 0.4000 0.9165
vn 0.0000 0.2684 0.9633
vn 0.0000 0.1440 0.9896
vn 0.0000 0.0230 0.9997
vn 0.0001 -0.1004 0.9949
vn -0.0000 -0.2302 0.9732
vn 0.0000 -0.3695 0.9292
vn -0.0000 0.8843 -0.4670
vn 0.0000 0.7999 -0.6002
vn -0.0000 0.6762 -0.7367
vn -0.0000 0.5383 -0.8427
vn -0.0000 0.4000 -0.9165
vn -0.0000 0.2684 -0.9633
vn -0.0000 0.1440 -0.9896
vn 0.0000 0.0230 -0.9997
vn 0.0000 -0.1000 -0.9950
vn 0.0000 -0.2301 -0.9732
vn 0.0000 -0.3695 -0.9292
vn 0.0000 1.0000 0.0000
vn -1.0000 0.0000 0.0000
vn -0.0000 0.0000 -1.0000
vn 0.0000 -0.9827 -0.1852
vn 0.0000 -0.9179 -0.3969
vn 0.0000 0.0000 1.0000
vn 0.0000 -0.7986 0.6018
vn 0.0000 -0.9063 0.4227
vn 0.0000 -0.9302 0.3671
vn 0.0000 -0.9516 0.3073
vn 0.0000 -0.9699 0.2436
vn 0.0000 -0.9843 0.1766
vn 0.0000 -0.9943 0.1070
vn -0.9889 0.0000 0.1489
vn -0.9109 -0.0000 0.4126
vn -0.9109 -0.0000 -0.4126
vn -0.7240 -0.0000 -0.6898
vn -0.5129 0.0047 -0.8584
vn 0.5146 0.0013 0.8574
vn 0.7240 0.0000 0.6898
vn 0.9109 0.0000 0.4126
vn 0.9889 -0.0000 -0.1489
vn 0.9109 0.0000 -0.4126
vn 0.9889 0.0000 0.1489
vn 0.7240 -0.0000 -0.6898
vn 0.5140 0.0024 -0.8578
vn -0.9889 0.0000 -0.1489
vn -0.7240 -0.0000 0.6898
vn -0.5140 0.0024 0.8578
vn 0.0000 -1.0000 0.0000
vn -0.8880 0.0000 -0.4598
vn 0.0000 1.0000 0.0064
vn 0.8880 0.0000 -0.4598
vn 0.0000 -0.7985 -0.6020
vn 0.0000 -0.9998 -0.0184
vn 0.0000 -0.9954 -0.0960
vn 0.0000 -0.9923 -0.1242
vn 0.0000 -0.9846 -0.1748
vn 0.0000 -0.9830 -0.1838
vn 0.0000 -0.9753 -0.2210
vn 0.0000 -0.9680 -0.2509
vn 0.0000 -0.9668 -0.2554
vn 0.0000 -0.9465 -0.3228
vn 0.0000 -0.9496 -0.3135
vn 0.0000 -0.8955 -0.4451
vn 0.9998 0.0000 -0.0188
vn 0.9989 0.0000 -0.0475
vn 0.9977 0.0000 -0.0678
vn 0.9964 0.0000 -0.0852
vn 0.9948 0.0000 -0.1017
vn 0.9930 0.0000 -0.1184
vn 0.9907 0.0000 -0.1358
vn 0.9882 0.0000 -0.1533
vn 0.9858 0.0000 -0.1681
vn 0.9850 0.0000 -0.1723
vn 0.9891 0.0000 -0.1472
vn 0.0000 1.0000 -0.0037
vn 0.0000 1.0000 -0.0092
vn 0.0000 1.0000 -0.0082
vn 0.0000 1.0000 0.0099
vn 0.0000 0.9999 -0.0135
vn 0.0000 1.0000 -0.0073
vn 0.0000 1.0000 -0.0096
vn -0.0030 0.9999 -0.0142
vn -0.0034 0.9997 -0.0254
vn 0.0000 0.9999 -0.0129
vn 0.0000 0.9998 -0.0193
vn -0.9998 0.0000 -0.0188
vn -0.9989 0.0000 -0.0475
vn -0.9977 0.0000 -0.0678
vn -0.9964 0.0000 -0.0852
vn -0.9948 0.0000 -0.1017
vn -0.9930 0.0000 -0.1184
vn -0.9907 0.0000 -0.1358
vn -0.9882 0.0000 -0.1533
vn -0.9858 0.0000 -0.1681
vn -0.9850 0.0000 -0.1723
vn -0.9891 0.0000 -0.1472
vn 0.0000 -0.7842 -0.6205
vn 0.0000 0.7842 -0.6205
vn 0.4305 0.0000 -0.9026
vn -0.4243 0.0000 -0.9055
vn 0.0000 -0.5645 0.8254
vn 0.0000 0.5781 0.8160
vn 0.5781 0.0000 0.8160
vn -0.5781 0.0000 0.8160
vn 0.0000 -0.9995 0.0331
usemtl None
s off
f 24/1/1 23/2/1 11/3/1 12/4/1
f 2/5/2 118/6/2 119/7/2 6/8/2
f 3/9/3 70/10/3 110/11/3 99/12/3 7/13/3
f 4/14/4 3/9/4 7/13/4 8/15/4
f 1/16/5 2/5/5 6/8/5 5/17/5
f 10/18/6 12/4/6 60/19/6 58/20/6
f 46/21/7 45/22/7 10/18/7 9/23/7
f 45/22/8 24/1/8 12/4/8 10/18/8
f 23/2/9 46/21/9 9/23/9 11/3/9
f 7/13/10 99/12/10 111/24/10 13/25/10
f 13/25/11 111/24/11 101/26/11 14/27/11
f 14/27/12 101/26/12 112/28/12 15/29/12
f 15/29/13 112/28/13 107/30/13 138/31/13
f 16/32/14 53/33/14 52/34/14 17/35/14
f 17/35/15 52/34/15 51/36/15 18/37/15
f 18/37/16 51/36/16 50/38/16 19/39/16
f 19/39/17 50/38/17 49/40/17 20/41/17
f 20/41/18 49/40/18 48/42/18 21/43/18
f 21/43/19 48/42/19 47/44/19 22/45/19
f 22/45/20 47/44/20 46/21/20 23/2/20
f 6/8/21 119/7/21 126/46/21 35/47/21
f 35/47/22 126/46/22 123/48/22 36/49/22
f 36/49/23 123/48/23 122/50/23 37/51/23
f 37/51/24 122/50/24 117/52/24 108/53/24
f 38/54/25 31/55/25 30/56/25 39/57/25
f 39/57/26 30/56/26 29/58/26 40/59/26
f 40/59/27 29/58/27 28/60/27 41/61/27
f 41/61/28 28/60/28 27/62/28 42/63/28
f 42/63/29 27/62/29 26/64/29 43/65/29
f 43/65/30 26/64/30 25/66/30 44/67/30
f 44/67/31 25/66/31 24/1/31 45/22/31
f 5/17/32 6/8/32 35/47/32 56/68/32
f 56/68/33 35/47/33 36/49/33 55/69/33
f 55/69/34 36/49/34 37/51/34 54/70/34
f 54/70/35 37/51/35 108/53/35 38/54/35 53/33/35 137/71/35
f 53/33/36 38/54/36 39/57/36 52/34/36
f 52/34/37 39/57/37 40/59/37 51/36/37
f 51/36/38 40/59/38 41/61/38 50/38/38
f 50/38/39 41/61/39 42/63/39 49/40/39
f 49/40/40 42/63/40 43/65/40 48/42/40
f 48/42/41 43/65/41 44/67/41 47/44/41
f 47/44/42 44/67/42 45/22/42 46/21/42
f 8/15/43 7/13/43 13/25/43 34/72/43
f 34/72/44 13/25/44 14/27/44 33/73/44
f 33/73/45 14/27/45 15/29/45 32/74/45
f 32/74/46 15/29/46 138/31/46 16/32/46 31/55/46 109/75/46
f 31/55/47 16/32/47 17/35/47 30/56/47
f 30/56/48 17/35/48 18/37/48 29/58/48
f 29/58/49 18/37/49 19/39/49 28/60/49
f 28/60/50 19/39/50 20/41/50 27/62/50
f 27/62/51 20/41/51 21/43/51 26/64/51
f 26/64/52 21/43/52 22/45/52 25/66/52
f 25/66/53 22/45/53 23/2/53 24/1/53
f 57/76/54 58/20/54 60/19/54 59/77/54
f 11/3/55 9/23/55 57/76/55 59/77/55
f 66/78/6 65/79/6 139/80/6 141/81/6
f 92/82/6 91/83/6 210/84/6 205/85/6
f 146/86/56 145/87/56 201/88/56 200/89/56
f 68/90/55 67/91/55 142/92/55 140/93/55
f 65/79/57 68/90/57 140/93/57 139/80/57
f 67/91/54 66/78/54 141/81/54 142/92/54
f 59/77/54 60/19/54 66/78/54 67/91/54
f 12/4/58 11/3/58 68/90/58 65/79/58
f 11/3/55 59/77/55 67/91/55 68/90/55
f 60/19/6 12/4/6 65/79/6 66/78/6
f 78/94/55 77/95/55 204/96/55 207/97/55
f 91/83/54 78/94/54 207/97/54 210/84/54
f 203/98/59 206/99/59 209/100/59 208/101/59
f 58/20/54 57/76/54 84/102/54 85/103/54
f 85/103/54 84/102/54 83/104/54 86/105/54
f 86/105/54 83/104/54 82/106/54 87/107/54
f 87/107/54 82/106/54 81/108/54 88/109/54
f 88/109/54 81/108/54 80/110/54 89/111/54
f 89/111/54 80/110/54 79/112/54 90/113/54
f 90/113/54 79/112/54 78/94/54 91/83/54
f 9/23/60 10/18/60 98/114/60 71/115/60
f 71/115/61 98/114/61 97/116/61 72/117/61
f 72/117/62 97/116/62 96/118/62 73/119/62
f 73/119/63 96/118/63 95/120/63 74/121/63
f 74/121/64 95/120/64 94/122/64 75/123/64
f 75/123/65 94/122/65 93/124/65 76/125/65
f 76/125/66 93/124/66 92/82/66 77/95/66
f 10/18/6 58/20/6 85/103/6 98/114/6
f 98/114/6 85/103/6 86/105/6 97/116/6
f 97/116/6 86/105/6 87/107/6 96/118/6
f 96/118/6 87/107/6 88/109/6 95/120/6
f 95/120/6 88/109/6 89/111/6 94/122/6
f 94/122/6 89/111/6 90/113/6 93/124/6
f 93/124/6 90/113/6 91/83/6 92/82/6
f 57/76/55 9/23/55 71/115/55 84/102/55
f 84/102/55 71/115/55 72/117/55 83/104/55
f 83/104/55 72/117/55 73/119/55 82/106/55
f 82/106/55 73/119/55 74/121/55 81/108/55
f 81/108/55 74/121/55 75/123/55 80/110/55
f 80/110/55 75/123/55 76/125/55 79/112/55
f 79/112/55 76/125/55 77/95/55 78/94/55
f 103/126/67 107/127/67 112/128/67 134/129/67
f 109/75/24 117/52/24 116/130/24 32/74/24
f 134/129/68 112/128/68 101/131/68 135/132/68 69/133/68
f 108/53/24 117/52/24 109/75/24 31/55/24 38/54/24
f 132/134/69 113/135/69 106/136/69 133/137/69
f 105/138/70 104/139/70 113/135/70 132/134/70
f 113/140/11 104/141/11 56/68/11 55/69/11
f 102/142/3 100/143/3 1/16/3 5/17/3
f 100/144/71 102/145/71 104/139/71 105/138/71
f 115/146/22 120/147/22 34/72/22 33/73/22
f 120/147/21 121/148/21 8/15/21 34/72/21
f 127/149/72 121/150/72 120/151/72 128/152/72
f 121/148/2 127/153/2 4/14/2 8/15/2
f 128/152/73 120/151/73 115/154/73 114/155/73
f 114/155/74 115/154/74 116/156/74 129/157/74
f 124/158/75 117/159/75 122/160/75 130/161/75
f 116/130/23 115/146/23 33/73/23 32/74/23
f 130/161/76 122/160/76 123/162/76 131/163/76
f 129/157/77 116/156/77 117/159/77 124/158/77
f 131/163/78 123/162/78 126/164/78 125/165/78
f 125/165/79 126/164/79 119/166/79 118/167/79
f 133/137/80 106/136/80 107/127/80 103/126/80
f 135/132/81 101/131/81 111/168/81 136/169/81
f 136/169/82 111/168/82 99/170/82 110/171/82
f 106/172/12 113/140/12 55/69/12 54/70/12
f 104/141/10 102/142/10 5/17/10 56/68/10
f 137/71/13 107/30/13 106/172/13 54/70/13
f 138/31/13 107/30/13 137/71/13 53/33/13 16/32/13
f 1/16/83 100/143/83 118/6/83 2/5/83
f 61/173/56 62/174/56 139/80/56 140/93/56
f 64/175/56 63/176/56 142/92/56 141/81/56
f 62/174/56 64/175/56 141/81/56 139/80/56
f 63/176/56 61/173/56 140/93/56 142/92/56
f 162/177/84 161/178/84 149/179/84 147/180/84
f 62/174/83 61/173/83 197/181/83 196/182/83
f 144/183/56 146/86/56 200/89/56 195/184/56
f 64/175/6 62/174/6 196/182/6 199/185/6
f 63/176/54 64/175/54 199/185/54 202/186/54
f 145/87/56 143/187/56 198/188/56 201/88/56
f 61/173/55 63/176/55 202/186/55 197/181/55
f 148/189/56 147/180/56 149/179/56 150/190/56
f 161/178/85 183/191/85 150/190/85 149/179/85
f 183/191/86 194/192/86 148/189/86 150/190/86
f 194/192/87 162/177/87 147/180/87 148/189/87
f 144/183/88 143/187/88 172/193/88 184/194/88
f 184/194/89 172/193/89 171/195/89 185/196/89
f 185/196/90 171/195/90 170/197/90 186/198/90
f 186/198/91 170/197/91 169/199/91 187/200/91
f 187/200/92 169/199/92 168/201/92 188/202/92
f 188/202/93 168/201/93 167/203/93 189/204/93
f 189/204/94 167/203/94 166/205/94 190/206/94
f 190/206/95 166/205/95 165/207/95 191/208/95
f 191/208/96 165/207/96 164/209/96 192/210/96
f 192/210/97 164/209/97 163/211/97 193/212/97
f 193/212/98 163/211/98 162/177/98 194/192/98
f 146/86/99 144/183/99 184/194/99 173/213/99
f 173/213/100 184/194/100 185/196/100 174/214/100
f 174/214/101 185/196/101 186/198/101 175/215/101
f 175/215/102 186/198/102 187/200/102 176/216/102
f 176/216/103 187/200/103 188/202/103 177/217/103
f 177/217/104 188/202/104 189/204/104 178/218/104
f 178/218/105 189/204/105 190/206/105 179/219/105
f 179/219/106 190/206/106 191/208/106 180/220/106
f 180/220/107 191/208/107 192/210/107 181/221/107
f 181/221/108 192/210/108 193/212/108 182/222/108
f 182/222/109 193/212/109 194/192/109 183/191/109
f 145/87/110 146/86/110 173/213/110 151/223/110
f 151/223/111 173/213/111 174/214/111 152/224/111
f 152/224/112 174/214/112 175/215/112 153/225/112
f 153/225/113 175/215/113 176/216/113 154/226/113
f 154/226/114 176/216/114 177/217/114 155/227/114
f 155/227/115 177/217/115 178/218/115 156/228/115
f 156/228/116 178/218/116 179/219/116 157/229/116
f 157/229/117 179/219/117 180/220/117 158/230/117
f 158/230/118 180/220/118 181/221/118 159/231/118
f 159/231/119 181/221/119 182/222/119 160/232/119
f 160/232/120 182/222/120 183/191/120 161/178/120
f 143/187/121 145/87/121 151/223/121 172/193/121
f 172/193/122 151/223/122 152/224/122 171/195/122
f 171/195/123 152/224/123 153/225/123 170/197/123
f 170/197/124 153/225/124 154/226/124 169/199/124
f 169/199/125 154/226/125 155/227/125 168/201/125
f 168/201/126 155/227/126 156/228/126 167/203/126
f 167/203/127 156/228/127 157/229/127 166/205/127
f 166/205/128 157/229/128 158/230/128 165/207/128
f 165/207/129 158/230/129 159/231/129 164/209/129
f 164/209/130 159/231/130 160/232/130 163/211/130
f 163/211/131 160/232/131 161/178/131 162/177/131
f 196/182/132 197/181/132 198/188/132 195/184/132
f 200/89/133 201/88/133 202/186/133 199/185/133
f 195/184/134 200/89/134 199/185/134 196/182/134
f 201/88/135 198/188/135 197/181/135 202/186/135
f 143/187/56 144/183/56 195/184/56 198/188/56
f 204/96/136 205/85/136 206/99/136 203/98/136
f 208/101/137 209/100/137 210/84/137 207/97/137
f 209/100/138 206/99/138 205/85/138 210/84/138
f 203/98/139 208/101/139 207/97/139 204/96/139
f 77/95/140 92/82/140 205/85/140 204/96/140
f 127/153/83 70/10/83 3/9/83 4/14/83
f 128/233/83 136/234/83 110/11/83 70/10/83 127/153/83
f 114/235/83 135/236/83 136/234/83 128/233/83
f 129/237/83 69/238/83 135/236/83 114/235/83
f 124/239/83 103/240/83 134/241/83 69/238/83 129/237/83
f 130/242/83 133/243/83 103/240/83 124/239/83
f 131/244/83 132/245/83 133/243/83 130/242/83
f 125/246/83 105/247/83 132/245/83 131/244/83
f 118/6/83 100/143/83 105/247/83 125/246/83
